<svg width="1440" height="1613" viewBox="0 0 1440 1613" xmlns="http://www.w3.org/2000/svg"><title>Group 14</title><path d="M1500.95 797.644c-22.022 0-396.477 83.25-547.078-71.549-118.16-121.453-108.597-312.903-73.587-404.136 65.5-170.684 412.825-112.833 525.465-260.3 112.64-147.467 19.46-395.722 133.27-470.352C1813.784-588.868 2016-36.765 2016 283.132c0 319.897-195.31 514.512-515.05 514.512zM-52.284 1590.366c22.307 0 401.608 84.286 554.159-72.44 119.689-122.966 110.002-316.8 74.538-409.168-66.347-172.81-418.167-114.238-532.265-263.541-114.098-149.304.279-405.133-115.004-480.693C-349.176 182.106-574 745.567-574 1069.447s197.837 520.919 521.716 520.919z" fill="#F9FBFD" fill-rule="evenodd"/></svg>