<svg xmlns="http://www.w3.org/2000/svg" xmlns:xlink="http://www.w3.org/1999/xlink" width="799" height="570" viewBox="0 0 799 570">
    <defs>
        <linearGradient id="b" x1="57.611%" x2="57.611%" y1="0%" y2="100%">
            <stop offset="0%" stop-color="#6F49E5"/>
            <stop offset="100%" stop-color="#A265E9" stop-opacity="0"/>
        </linearGradient>
        <path id="a" d="M.212 368.625l54.744 31.361V31.936L.212.575z"/>
        <linearGradient id="c" x1="50%" x2="50%" y1="0%" y2="100%">
            <stop offset="0%" stop-color="#FFF" stop-opacity="0"/>
            <stop offset="100%" stop-color="#FFF"/>
        </linearGradient>
        <linearGradient id="f" x1="100%" y1="7.127%" y2="100%">
            <stop offset="0%" stop-color="#B051B2"/>
            <stop offset="100%" stop-color="#D781D9" stop-opacity="0"/>
        </linearGradient>
        <path id="e" d="M.212 274.066l54.744 31.362V31.936L.212.575z"/>
        <linearGradient id="i" x1="50%" x2="50%" y1="19.052%" y2="117.736%">
            <stop offset="0%" stop-color="#FD9FFF"/>
            <stop offset="100%" stop-color="#B759B9"/>
        </linearGradient>
        <path id="h" d="M.212 182.806l54.744 31.362V31.936L.212.575z"/>
        <linearGradient id="k" x1="50%" x2="50%" y1="100%" y2="7.549%">
            <stop offset="0%" stop-color="#B051B2"/>
            <stop offset="100%" stop-color="#B759B9"/>
        </linearGradient>
        <linearGradient id="l" x1="0%" x2="92.737%" y1="0%" y2="127.612%">
            <stop offset="0%" stop-color="#E9AFFF"/>
            <stop offset="100%" stop-color="#C980F0"/>
        </linearGradient>
        <linearGradient id="m" x1="30.239%" x2="31.534%" y1="141.27%" y2="13.118%">
            <stop offset="0%" stop-color="#BF4DEA"/>
            <stop offset="100%" stop-color="#7756D2"/>
        </linearGradient>
        <linearGradient id="n" x1="30.239%" x2="27.305%" y1="141.27%" y2="-4.673%">
            <stop offset="0%" stop-color="#D787F5"/>
            <stop offset="100%" stop-color="#6E48E0"/>
        </linearGradient>
        <linearGradient id="o" x1="30.239%" x2="30.239%" y1="141.27%" y2="17.377%">
            <stop offset="0%" stop-color="#D787F5"/>
            <stop offset="100%" stop-color="#8154D5"/>
        </linearGradient>
        <linearGradient id="p" x1="50%" x2="46.068%" y1="139.819%" y2="-31.223%">
            <stop offset="0%" stop-color="#D787F5"/>
            <stop offset="100%" stop-color="#3634BB"/>
        </linearGradient>
        <linearGradient id="q" x1="46.068%" x2="46.068%" y1="213.096%" y2="-31.223%">
            <stop offset="0%" stop-color="#D787F5"/>
            <stop offset="100%" stop-color="#3634BB"/>
        </linearGradient>
        <linearGradient id="r" x1="0%" x2="79.314%" y1="0%" y2="89.581%">
            <stop offset="0%" stop-color="#B051B2"/>
            <stop offset="100%" stop-color="#D781D9"/>
        </linearGradient>
        <linearGradient id="s" x1="39.609%" x2="50%" y1="-138.159%" y2="100%">
            <stop offset="0%" stop-color="#D787F5"/>
            <stop offset="100%" stop-color="#6134BB"/>
        </linearGradient>
        <linearGradient id="t" x1="0%" x2="71.297%" y1="0%" y2="170.747%">
            <stop offset="0%" stop-color="#D787F5"/>
            <stop offset="100%" stop-color="#3634BB"/>
        </linearGradient>
        <linearGradient id="u" x1="0%" x2="29.563%" y1="0%" y2="238.158%">
            <stop offset="0%" stop-color="#D787F5"/>
            <stop offset="100%" stop-color="#3634BB"/>
        </linearGradient>
        <linearGradient id="v" x1="50%" x2="50%" y1="0%" y2="100%">
            <stop offset="0%" stop-color="#CED2FE"/>
            <stop offset="100%" stop-color="#C79EFE"/>
        </linearGradient>
        <linearGradient id="w" x1="108.958%" x2="50%" y1="36.606%" y2="100%">
            <stop offset="0%" stop-color="#FFF"/>
            <stop offset="100%" stop-color="#EBCEFE"/>
        </linearGradient>
        <linearGradient id="x" x1="0%" x2="0%" y1="0%" y2="119.212%">
            <stop offset="0%" stop-color="#3F2F78"/>
            <stop offset="100%" stop-color="#7E5CD4"/>
        </linearGradient>
        <linearGradient id="y" x1="50%" x2="-6.218%" y1="0%" y2="90.962%">
            <stop offset="0%" stop-color="#EEF0FE"/>
            <stop offset="100%" stop-color="#CED2FE"/>
        </linearGradient>
        <linearGradient id="z" x1="50%" x2="-6.218%" y1="0%" y2="90.962%">
            <stop offset="0%" stop-color="#FFF"/>
            <stop offset="100%" stop-color="#CED2FE"/>
        </linearGradient>
        <linearGradient id="A" x1="101.761%" x2="-1.214%" y1="50%" y2="43.147%">
            <stop offset="0%" stop-color="#FEB08A"/>
            <stop offset="100%" stop-color="#FF728B"/>
        </linearGradient>
        <path id="B" d="M12.019 2.516c.45.85.762 1.881.938 3.092.264 1.817.206 5.404.123 6.245-.082.84-.295 1.905-1.773 1.905-.985 0-1.85-.141-2.594-.424-.2.605-.358 1.12-.476 1.544-.118.424-.212.982-.284 1.673-1.817.082-3.18-.064-4.088-.435-.907-.372-1.45-.953-1.627-1.743.326-.917.498-1.594.516-2.03.026-.655-1.596-1.876-2.282-4.295-.687-2.42.244-4.39 1.195-5.32C2.618 1.8 4.841.103 7.804.053c1.975-.033 3.38.788 4.215 2.463z"/>
        <linearGradient id="D" x1="0%" y1="0%" y2="100%">
            <stop offset="0%" stop-color="#FFC2D7"/>
            <stop offset="100%" stop-color="#FE5EF0"/>
        </linearGradient>
        <linearGradient id="E" x1="58.019%" x2="37.258%" y1="-16.118%" y2="267.272%">
            <stop offset="0%" stop-color="#B051B2"/>
            <stop offset="100%" stop-color="#D781D9"/>
        </linearGradient>
        <linearGradient id="F" x1="86.934%" x2="5.843%" y1="38.828%" y2="46.076%">
            <stop offset="0%" stop-color="#E5AE9B"/>
            <stop offset="100%" stop-color="#DA9C86"/>
        </linearGradient>
        <linearGradient id="G" x1="50%" x2="50%" y1="0%" y2="100%">
            <stop offset="0%" stop-color="#6F49E5"/>
            <stop offset="100%" stop-color="#A265E9"/>
        </linearGradient>
        <linearGradient id="H" x1="-5.246%" x2="54.386%" y1="100%" y2="-39.703%">
            <stop offset="0%" stop-color="#6F49E5"/>
            <stop offset="100%" stop-color="#A265E9"/>
        </linearGradient>
        <linearGradient id="I" x1="30.239%" x2="30.239%" y1="141.27%" y2="5.178%">
            <stop offset="0%" stop-color="#D787F5"/>
            <stop offset="100%" stop-color="#3634BB"/>
        </linearGradient>
        <linearGradient id="J" x1="30.239%" x2="30.239%" y1="157.179%" y2="7.946%">
            <stop offset="0%" stop-color="#D787F5"/>
            <stop offset="100%" stop-color="#3634BB"/>
        </linearGradient>
        <linearGradient id="K" x1="0%" x2="92.737%" y1="0%" y2="127.612%">
            <stop offset="0%" stop-color="#7F15A7"/>
            <stop offset="100%" stop-color="#C980F0"/>
        </linearGradient>
        <linearGradient id="L" x1="0%" x2="92.737%" y1="0%" y2="127.612%">
            <stop offset="0%" stop-color="#D787F5"/>
            <stop offset="100%" stop-color="#C980F0"/>
        </linearGradient>
        <linearGradient id="M" x1="2.723%" x2="71.939%" y1="2.723%" y2="76.383%">
            <stop offset="0%" stop-color="#16CCCC"/>
            <stop offset="100%" stop-color="#7E4BE6"/>
        </linearGradient>
        <linearGradient id="N" x1="0%" y1="0%" y2="100%">
            <stop offset="2.723%" stop-color="#16CCCC"/>
            <stop offset="98.085%" stop-color="#7E4BE6"/>
        </linearGradient>
        <linearGradient id="O" x1="33.891%" x2="33.891%" y1="135.716%" y2="2.373%">
            <stop offset="0%" stop-color="#D787F5"/>
            <stop offset="100%" stop-color="#8754D6"/>
        </linearGradient>
        <linearGradient id="P" x1="0%" x2="93.598%" y1="15.932%" y2="107.848%">
            <stop offset="0%" stop-color="#B45EFE"/>
            <stop offset="100%" stop-color="#7E89FE"/>
        </linearGradient>
        <linearGradient id="Q" x1="67.631%" x2="78.912%" y1="111.681%" y2="38.354%">
            <stop offset="0%" stop-color="#FCE1FE"/>
            <stop offset="100%" stop-color="#F4C5FD"/>
        </linearGradient>
        <linearGradient id="S" x1="0%" x2="92.737%" y1="0%" y2="127.612%">
            <stop offset="0%" stop-color="#C36FE3"/>
            <stop offset="100%" stop-color="#C980F0"/>
        </linearGradient>
        <path id="R" d="M51.695.491l76.521 43.59a.871.871 0 0 1 0 1.514L79.574 73.293a1.742 1.742 0 0 1-1.724 0L1.33 29.703a.871.871 0 0 1 0-1.513L49.97.49a1.742 1.742 0 0 1 1.725 0z"/>
        <path id="U" d="M145.688 35.684v98.746L0 50.908v-35.25C6.725 15.057 17.077-2.361 28.488.272c12.807 2.955 12.9 14.446 25.795 20.972C67.177 27.77 83.359.556 101.224 7.562c17.295 6.781 20.703 18.511 44.464 28.122z"/>
        <path id="V" d="M145.688 51.684v82.746L0 50.908v-19.25c6.725-.602 17.077-18.02 28.488-15.387 12.807 2.955 12.9 14.446 25.795 20.972 12.894 6.526 29.076-20.687 46.941-13.681 17.295 6.781 20.703 18.511 44.464 28.122z"/>
        <linearGradient id="X" x1="100%" x2="0%" y1="81.945%" y2="29.048%">
            <stop offset="0%" stop-color="#FAB6AC"/>
            <stop offset="100%" stop-color="#FF77BD"/>
        </linearGradient>
        <path id="Y" d="M12.6 2.859c.471.893.8 1.975.985 3.247.277 1.908.215 5.674.129 6.557-.086.884-.31 2.001-1.862 2.001-1.035 0-1.943-.148-2.724-.445-.21.635-.377 1.176-.5 1.621-.124.446-.223 1.031-.298 1.758-1.91.085-3.34-.067-4.293-.458-.953-.39-1.523-1-1.709-1.83.342-.963.523-1.674.541-2.132.029-.688-1.675-1.97-2.396-4.51-.721-2.541.256-4.61 1.255-5.587 1-.975 3.333-2.757 6.445-2.81 2.074-.034 3.55.828 4.426 2.588z"/>
        <linearGradient id="aa" x1="50%" x2="50%" y1="211.675%" y2="-7.205%">
            <stop offset="0%" stop-color="#303FCE"/>
            <stop offset="100%" stop-color="#5E6BFE"/>
        </linearGradient>
        <linearGradient id="ab" x1="50%" x2="50%" y1="0%" y2="100%">
            <stop offset="0%" stop-color="#2839BA"/>
            <stop offset="100%" stop-color="#719FF2"/>
        </linearGradient>
        <linearGradient id="ac" x1="90.006%" x2="5.843%" y1="43.346%" y2="46.076%">
            <stop offset="0%" stop-color="#FFD1D9"/>
            <stop offset="100%" stop-color="#E5B6BE"/>
        </linearGradient>
        <linearGradient id="ad" x1="50%" x2="89.265%" y1="119.771%" y2="-36.944%">
            <stop offset="0%" stop-color="#BFC4FF"/>
            <stop offset="100%" stop-color="#8E97FE"/>
        </linearGradient>
        <linearGradient id="ae" x1="96.694%" x2="35.026%" y1="62.898%" y2="42.181%">
            <stop offset="0%" stop-color="#FF9494"/>
            <stop offset="100%" stop-color="#FF8484"/>
        </linearGradient>
        <linearGradient id="af" x1="50%" x2="50%" y1="7.492%" y2="100%">
            <stop offset="0%" stop-color="#FF8F5E"/>
            <stop offset="100%" stop-color="#FFB97F"/>
        </linearGradient>
        <linearGradient id="ag" x1="100%" x2="0%" y1="-5.87%" y2="100%">
            <stop offset="0%" stop-color="#E1E9FE"/>
            <stop offset="100%" stop-color="#C5D5FD"/>
        </linearGradient>
        <linearGradient id="ah" x1="50%" x2="87.688%" y1="119.771%" y2="0%">
            <stop offset="0%" stop-color="#BFC4FF"/>
            <stop offset="100%" stop-color="#727DFF"/>
        </linearGradient>
        <linearGradient id="ai" x1="68.314%" x2="-41.366%" y1="18.116%" y2="136.053%">
            <stop offset="0%" stop-color="#7782FE"/>
            <stop offset="100%" stop-color="#C5D5FD"/>
        </linearGradient>
        <linearGradient id="aj" x1="50%" x2="50%" y1="0%" y2="100%">
            <stop offset="0%" stop-color="#CED2FE"/>
            <stop offset="100%" stop-color="#9EA6FE"/>
        </linearGradient>
        <linearGradient id="ak" x1="56.919%" x2="56.919%" y1="146.253%" y2="-9.691%">
            <stop offset="0%" stop-color="#D787F5"/>
            <stop offset="100%" stop-color="#3634BB"/>
        </linearGradient>
        <path id="al" d="M15.9 40.531c8.78 4.945 15.898.391 15.898-10.17 0-10.563-7.118-23.134-15.899-28.079C7.12-2.662 0 1.892 0 12.453c0 10.563 7.118 23.133 15.9 28.078z"/>
        <linearGradient id="am" x1="50%" x2="50%" y1="0%" y2="99.273%">
            <stop offset="0%" stop-color="#F4AE95"/>
            <stop offset="100%" stop-color="#F3717E"/>
        </linearGradient>
        <linearGradient id="ap" x1="-5.089%" x2="75.884%" y1="65.828%" y2="24.901%">
            <stop offset="0%" stop-color="#F4AE95"/>
            <stop offset="100%" stop-color="#F3717E"/>
        </linearGradient>
        <path id="ao" d="M15.9 40.531c8.78 4.945 15.898.391 15.898-10.17 0-10.563-7.118-23.134-15.899-28.079C7.12-2.662 0 1.892 0 12.453c0 4.855 1.504 10.135 3.982 14.903 2.614 5.028 5.517 7.958 5.522 7.964 1.957 2.137 4.12 3.93 6.395 5.211z"/>
        <linearGradient id="aq" x1="74.006%" x2="37.526%" y1="69.773%" y2="36.717%">
            <stop offset="0%" stop-color="#E1E9FE"/>
            <stop offset="100%" stop-color="#C5D5FD"/>
        </linearGradient>
        <linearGradient id="as" x1="58.313%" x2="58.313%" y1="33.891%" y2="100%">
            <stop offset="0%" stop-color="#303FCE"/>
            <stop offset="100%" stop-color="#5E6BFE"/>
        </linearGradient>
        <linearGradient id="at" x1="-17.571%" x2="116.69%" y1="12.546%" y2="47.06%">
            <stop offset="0%" stop-color="#D787F5"/>
            <stop offset="100%" stop-color="#5D38C4"/>
        </linearGradient>
        <linearGradient id="au" x1="12.364%" x2="92.737%" y1="34.5%" y2="127.612%">
            <stop offset="0%" stop-color="#E9AFFF"/>
            <stop offset="100%" stop-color="#C980F0"/>
        </linearGradient>
        <linearGradient id="av" x1="75.346%" x2="50%" y1="9.658%" y2="100%">
            <stop offset="0%" stop-color="#A255D5"/>
            <stop offset="100%" stop-color="#D089FF"/>
        </linearGradient>
        <linearGradient id="aw" x1="100%" x2="0%" y1="0%" y2="101.325%">
            <stop offset="0%" stop-color="#FFF"/>
            <stop offset="100%" stop-color="#FFF" stop-opacity="0"/>
        </linearGradient>
        <filter id="ax" width="429.7%" height="347.2%" x="-164.8%" y="-123.6%" filterUnits="objectBoundingBox">
            <feGaussianBlur in="SourceGraphic" stdDeviation="6.593"/>
        </filter>
    </defs>
    <g fill="none" fill-rule="evenodd" opacity=".98">
        <path fill="#303FCE" d="M474.582 51l-54.707 31.361v384.832l54.707 31.361 54.745-31.361V82.36z"/>
        <g transform="matrix(-1 0 0 1 529.539 81.787)">
            <mask id="d" fill="#fff">
                <use xlink:href="#a"/>
            </mask>
            <use fill="url(#b)" xlink:href="#a"/>
            <path fill="url(#c)" d="M9.905 5.498h15.407v189.117H9.905zM29.714 5.498h6.603v189.117h-6.603z" mask="url(#d)" opacity=".1"/>
        </g>
        <path fill="url(#b)" d="M109.663 399.412V31.362l-54.707 31.36v368.051z" opacity=".7" transform="matrix(-1 0 0 1 529.539 51)"/>
        <path fill="#D781D9" d="M474.582 51l-54.707 31.361v10.996l54.707 31.361 54.745-31.361V82.36z" opacity=".3"/>
        <path fill="#FEBFFF" d="M474.794 51l-54.707 31.361 54.707 31.362L529.54 82.36z"/>
        <path fill="#A265E9" d="M474.794 51l-54.707 31.361 54.707 30.362L529.54 82.36z"/>
        <path fill="#303FCE" d="M406.541 144.98l-54.707 31.362v252.89l54.707 31.36 54.745-31.36v-252.89z"/>
        <g transform="matrix(-1 0 0 1 461.497 175.767)">
            <mask id="g" fill="#fff">
                <use xlink:href="#e"/>
            </mask>
            <use fill="url(#f)" xlink:href="#e"/>
            <path fill="url(#c)" d="M9.905-16.493h15.407v255.088H9.905zM29.714-16.493h6.603v255.088h-6.603z" mask="url(#g)" opacity=".1"/>
        </g>
        <path fill="url(#f)" d="M109.805 309.199V30L53.956 62.016v279.198z" opacity=".8" transform="matrix(-1 0 0 1 461.497 144.98)"/>
        <path fill="#734AA4" d="M406.541 144.98l-54.707 31.362v10.995l54.707 31.362 54.745-31.362v-10.995z" opacity=".3"/>
        <path fill="#CCA0FF" d="M406.753 144.98l-54.707 31.362 54.707 31.362 54.744-31.362z"/>
        <path fill="#D781D9" d="M406.753 144.98l-54.707 31.362 54.707 30.362 54.744-30.362z"/>
        <path fill="#303FCE" d="M338.5 215.663l-54.707 31.361v241.894L338.5 520.28l54.744-31.362V247.024z"/>
        <g transform="matrix(-1 0 0 1 393.456 246.45)">
            <mask id="j" fill="#fff">
                <use xlink:href="#h"/>
            </mask>
            <use fill="url(#i)" xlink:href="#h"/>
            <path fill="url(#c)" d="M8.804-2.199h15.407v255.088H8.804zM28.613-2.199h6.603v255.088h-6.603z" mask="url(#j)" opacity=".758"/>
        </g>
        <path fill="url(#k)" d="M109.663 213.593V31.361L54.956 62.723v182.231z" transform="matrix(-1 0 0 1 393.456 215.663)"/>
        <path fill="#5E6BFE" d="M338.5 215.663l-54.707 31.361v10.996l54.707 31.36 54.744-31.36v-10.996z" opacity=".3"/>
        <path fill="#A3AAFF" d="M338.712 215.663l-54.707 31.361 54.707 31.362 54.744-31.362z"/>
        <path fill="url(#l)" d="M54.744 0l54.707 31.361-54.707 30.362L0 31.36z" transform="matrix(-1 0 0 1 393.456 215.663)"/>
        <g>
            <path fill="url(#m)" d="M138.439 53.103l135.79 37.672v304.392a2.2 2.2 0 0 1-1.104 1.908l-133.671 76.787a4.4 4.4 0 0 1-4.383 0L1.306 397.076A2.2 2.2 0 0 1 .2 395.167V90.775l135.886-37.672a4.4 4.4 0 0 1 2.352 0z" transform="translate(93.343 237.008)"/>
            <path fill="url(#n)" d="M207.88 53.96l66.35 36.815v304.842a2.2 2.2 0 0 1-.541 1.445l-64.625 74.247a4.4 4.4 0 0 1-6.637.001l-64.67-74.248a2.2 2.2 0 0 1-.542-1.445V90.775l66.397-36.815a4.4 4.4 0 0 1 4.268 0z" transform="translate(93.343 237.008)"/>
            <path fill="url(#o)" d="M141.347 80.301L143 90.775v305.582a2.2 2.2 0 0 1-.006.167L140 435.781a3.009 3.009 0 0 1-6 0l-2.995-39.257a2.2 2.2 0 0 1-.006-.167V90.775l1.654-10.474a4.4 4.4 0 0 1 8.693 0z" transform="translate(93.343 237.008)"/>
            <path fill="#1C204E" d="M114 368.049l86.75 50.278v20.083L114 388.132zM114 408.049l86.75 50.278v20.083L114 428.132zM114 448.049l86.75 50.278v20.083L114 468.132z" opacity=".07"/>
            <path fill="#1C204E" d="M114 498.049l86.75 50.278v20.083L114 518.132z" opacity=".05"/>
            <path fill="#1C204E" d="M114 538.049l86.75 50.278v20.083L114 558.132z" opacity=".03"/>
            <path fill="url(#p)" d="M139.237 11.987l134.992 67.792v10.822a2.2 2.2 0 0 1-1.104 1.907l-133.671 76.787a4.4 4.4 0 0 1-4.383.001L1.306 92.508A2.2 2.2 0 0 1 .2 90.6V79.78l135.087-67.794a4.4 4.4 0 0 1 3.949 0z" transform="translate(93.343 237.008)"/>
            <path fill="url(#q)" d="M139.443 1.234L273.07 76.877a2.2 2.2 0 0 1 .01 3.823l-133.644 76.613a4.4 4.4 0 0 1-4.354.012L1.364 81.682a2.2 2.2 0 0 1-.01-3.824L135.088 1.246a4.4 4.4 0 0 1 4.354-.012z" transform="translate(93.343 237.008)"/>
        </g>
        <g>
            <g transform="translate(131 231)">
                <ellipse cx="14.983" cy="76.6" fill="url(#r)" rx="4.35" ry="2.4"/>
                <path fill="url(#s)" d="M14.983 80c2.403 0 4.35-1.075 4.35-2.4V58.398c-1.744-1.6-3.194-2.4-4.35-2.4-1.31 0-2.76.8-4.35 2.4V77.6c0 1.325 1.948 2.4 4.35 2.4z"/>
                <path fill="url(#t)" d="M14.5 71.32c8.008 0 14.5-6.448 14.5-14.402C29 48.965 22.508 0 14.5 0S0 48.965 0 56.918C0 64.872 6.492 71.32 14.5 71.32z"/>
                <path fill="url(#u)" d="M14.5 71.32c5.108 0 8.7-6.448 8.7-14.402C23.2 48.965 19.608 0 14.5 0 6.492 0 0 48.965 0 56.918 0 64.872 6.492 71.32 14.5 71.32z"/>
            </g>
            <path fill="url(#v)" d="M6.57 51.16L91.68 1.722a6.6 6.6 0 0 1 6.078-.286l7.88 3.634a5.5 5.5 0 0 1 3.195 5.173l-6.265 192.974a13.2 13.2 0 0 1-5.875 10.558L15.49 267.86a4.4 4.4 0 0 1-4.655.14l-7.558-4.406A6.6 6.6 0 0 1 0 257.893V62.573A13.2 13.2 0 0 1 6.57 51.16z" transform="matrix(-1 0 0 1 296.018 67.677)"/>
            <path fill="url(#w)" d="M14.28 55.559L100.14 5.75a6.6 6.6 0 0 1 9.912 5.709v195.344a13.2 13.2 0 0 1-6.577 11.418l-85.86 49.809a6.6 6.6 0 0 1-9.911-5.709V66.977a13.2 13.2 0 0 1 6.576-11.418z" transform="matrix(-1 0 0 1 296.018 67.677)"/>
            <path fill="url(#x)" d="M13.206 80.9l92.443-53.412v159.894l-92.443 53.413z" transform="matrix(-1 0 0 1 296.018 67.677)"/>
            <path fill="#B5CCDD" d="M198.85 115.465l3.365-.286c.613-.052 1.407.4 2.02 1.153l3.364 4.122c.52.637.833 1.396.833 2.017v4.919c0 .621-.313 1.022-.833 1.067l-3.364.286c-.613.052-1.407-.4-2.02-1.153l-3.364-4.122c-.52-.637-.833-1.396-.833-2.017v-4.919c0-.621.313-1.022.833-1.067z"/>
            <path fill="#E8EFF4" d="M198.85 117.865l3.365-.286c.613-.052 1.407.4 2.02 1.153l3.364 4.122c.52.637.833 1.396.833 2.017v2.103c0 .621-.313 1.022-.833 1.067l-3.364.286c-.613.052-1.407-.4-2.02-1.153l-3.364-4.122c-.52-.637-.833-1.396-.833-2.017v-2.103c0-.621.313-1.022.833-1.067z"/>
            <path fill="#B5CCDD" d="M198.018 119.963l4.251 5.003c.588.691 1.324 1.112 1.912 1.09l4.25-.154v1.222c0 .621-.312 1.022-.832 1.066l-3.364.287c-.613.052-1.407-.4-2.02-1.153l-3.364-4.123c-.52-.637-.833-1.395-.833-2.016v-1.222z"/>
            <path fill="url(#y)" d="M25.655 93.696l72.062 41.523a2.218 2.218 0 0 1 1.11 1.922v31.177a1.109 1.109 0 0 1-1.662.96l-72.062-41.523a2.218 2.218 0 0 1-1.11-1.921V94.656a1.109 1.109 0 0 1 1.662-.96z" opacity=".1" transform="translate(174.18 46)"/>
            <g>
                <path fill="url(#y)" d="M1.662.142l72.063 41.523a2.218 2.218 0 0 1 1.11 1.922v31.177a1.109 1.109 0 0 1-1.662.96L1.11 34.202A2.218 2.218 0 0 1 0 32.28V1.103A1.109 1.109 0 0 1 1.662.142z" opacity=".1" transform="translate(198.173 182.535)"/>
                <path fill="url(#z)" d="M63.813 23.35l-3.088 4.88c-.393.622-1.031.98-1.425.798-.393-.18-.393-.832 0-1.454l3.326-5.256c.044-.07.092-.138.143-.202.026-.057.057-.116.094-.174.262-.414.688-.653.95-.532l3.645 1.802c.262.121.486.672.254 1.065-.232.393-.786.506-1.049.385l-2.85-1.313z" opacity=".5" transform="matrix(-1 0 0 1 273.008 182.535)"/>
                <path fill="url(#z)" d="M11.105 23.572l43.453 24.676c.417.237.674.678.674 1.157v7.515a.665.665 0 0 1-.994.578L10.784 32.822a1.33 1.33 0 0 1-.673-1.157v-7.514a.665.665 0 0 1 .994-.579z" opacity=".5" transform="translate(207.665 182.535)"/>
            </g>
            <g>
                <path fill="url(#y)" d="M1.662.142l72.063 41.523a2.218 2.218 0 0 1 1.11 1.922v31.177a1.109 1.109 0 0 1-1.662.96L1.11 34.202A2.218 2.218 0 0 1 0 32.28V1.103A1.109 1.109 0 0 1 1.662.142z" opacity=".1" transform="translate(198.173 225.535)"/>
                <path fill="url(#z)" d="M63.813 23.35l-3.088 4.88c-.393.622-1.031.98-1.425.798-.393-.18-.393-.832 0-1.454l3.326-5.256c.044-.07.092-.138.143-.202.026-.057.057-.116.094-.174.262-.414.688-.653.95-.532l3.645 1.802c.262.121.486.672.254 1.065-.232.393-.786.506-1.049.385l-2.85-1.313z" opacity=".5" transform="matrix(-1 0 0 1 273.008 225.535)"/>
                <path fill="url(#z)" d="M11.105 24.572l43.453 24.676c.417.237.674.678.674 1.157v7.515a.665.665 0 0 1-.994.578L10.784 33.822a1.33 1.33 0 0 1-.673-1.157v-7.514a.665.665 0 0 1 .994-.579z" opacity=".5" transform="translate(207.665 225.535)"/>
            </g>
            <g>
                <path fill="url(#A)" d="M3.283 60.994l102.792 59.576a3.168 3.168 0 0 1 1.58 2.74v44.75a1.584 1.584 0 0 1-2.379 1.371L2.484 109.855a3.168 3.168 0 0 1-1.58-2.74v-44.75a1.584 1.584 0 0 1 2.379-1.37z" transform="translate(128.44 46)"/>
                <path stroke="#FFF" stroke-linecap="round" stroke-linejoin="round" stroke-width="2" d="M167.116 166.282l15.614-3.16 9.774 9.1 25.253-1.892"/>
                <path fill="#FFF" d="M167.116 166.282l15.614-3.16 9.774 9.1 25.253-1.892v25.056z" opacity=".2"/>
                <path fill="#FFF" d="M143 145l12 7.02V160l-12-7.02z" opacity=".5"/>
                <path fill="#FFF" d="M149.124 134.16l5.058 7.827c.645.998 1.69 1.57 2.334 1.28.645-.29.645-1.335 0-2.332l-5.447-8.43a3.728 3.728 0 0 0-.234-.322 2.336 2.336 0 0 0-.155-.28c-.43-.664-1.126-1.046-1.556-.853l-5.97 2.89c-.43.194-.798 1.078-.418 1.708.38.63 1.289.811 1.719.617l4.669-2.105z"/>
                <path fill="#F5848F" d="M153.22 93.141l5.057 7.827c.645.997 1.69 1.57 2.335 1.28.645-.29.645-1.335 0-2.333l-5.447-8.428a3.728 3.728 0 0 0-.235-.324 2.336 2.336 0 0 0-.155-.279c-.43-.665-1.126-1.047-1.556-.853l-5.97 2.89c-.43.194-.797 1.078-.417 1.708.38.63 1.288.81 1.718.617l4.67-2.105z"/>
                <path fill="#F5848F" d="M153.22 71.15l5.057 7.828c.645.997 1.69 1.57 2.335 1.28.645-.291.645-1.335 0-2.333l-5.447-8.429a3.728 3.728 0 0 0-.235-.323 2.336 2.336 0 0 0-.155-.279c-.43-.665-1.126-1.047-1.556-.853l-5.97 2.89c-.43.193-.797 1.077-.417 1.707.38.63 1.288.811 1.718.618l4.67-2.105z" opacity=".6"/>
                <path fill="#F5848F" d="M153.22 49.16l5.057 7.827c.645.998 1.69 1.57 2.335 1.28.645-.29.645-1.335 0-2.332l-5.447-8.43a3.728 3.728 0 0 0-.235-.322 2.336 2.336 0 0 0-.155-.28c-.43-.664-1.126-1.046-1.556-.853l-5.97 2.89c-.43.194-.797 1.078-.417 1.708.38.63 1.288.811 1.718.617l4.67-2.105z" opacity=".3"/>
            </g>
            <g>
                <g transform="translate(190.06 242.926)">
                    <mask id="C" fill="#fff">
                        <use xlink:href="#B"/>
                    </mask>
                    <use fill="#E5AE9B" xlink:href="#B"/>
                    <path fill="#DA9C86" d="M8.819 8.027c-.218-.274-.392-.522-1.25-.54-.857-.019-1.283 1.236-.58 2.091.702.855 1.452 1.204 1.774 1.15.322-.054.569-.48.52-.83-.05-.352-.246-1.598-.464-1.871z" mask="url(#C)"/>
                </g>
                <path fill="#E5AE9B" d="M198.95 250.622c-.192-.273-.345-.52-1.1-.54-.755-.018-1.13 1.237-.512 2.092.619.855 1.329 1.274 1.612 1.22.284-.055.562-.324.518-.674-.043-.35-.326-1.824-.518-2.098z"/>
                <path fill="#FFD1D9" d="M189.63 330.254c-.325-.046-.518-.338-.578-.875-.06-.536-1.175-.59-3.344-.158l-.197 2.528c.883.533 1.696.598 2.44.194a3.999 3.999 0 0 0 1.68-1.69zM199.539 337.253l-.368-3.223-3.344.138-.49 2.906c.714.442 1.414.676 2.1.702.687.026 1.388-.148 2.102-.523z"/>
                <path fill="url(#D)" d="M12.673 48.384c1.374 0 2.189-.614 2.295-1.21.106-.595 2.63-16.62 2.667-17.886.024-.843.38-8.667 1.065-23.47C10.43 1.596 5.515-.192 3.956.453 2.398 1.1 1.75 1.84 2.012 2.678c.296 13.954.446 21.242.45 21.863.005.932-1.824 16.415-1.765 17.23.059.815.721 1.128 1.691 1.18.97.051 1.937-.414 2.17-.922.235-.507 4.04-16.42 4.125-17.07.057-.434.451-4.409 1.18-11.926 1.177 10.144 1.774 15.505 1.794 16.084.03.868-1.123 17.313-1.055 17.86.068.545.697 1.407 2.071 1.407z" transform="translate(184.752 287.613)"/>
                <path fill="#FFF" d="M195.06 337.27c-.085.81-.181 1.441-.29 1.892-.107.451-.161 1.179-.161 2.182.576.407 1.546.629 2.91.664 2.045.054 2.524-.33 4.621 0 2.098.33 5.367-.247 5.262-1.62-.08-1.032-2.325-1.683-3.994-1.993-1.668-.31-1.952-.339-2.507-.732a6.371 6.371 0 0 1-1.12-1.05c-.436.939-1.146 1.43-2.13 1.472-.986.042-1.85-.23-2.592-.815z"/>
                <path fill="url(#E)" d="M10.308 48.996c-.085.81-.181 1.441-.29 1.892-.107.452-.161 1.179-.161 2.182.576.408 1.546.629 2.91.664 2.045.054 2.524-.329 4.622 0 2.097.33 5.366-.246 5.26-1.62-.078-1.032-2.324-1.683-3.993-1.993-1.668-.31-1.952-.338-2.507-.732a6.371 6.371 0 0 1-1.12-1.05c-.436.939-1.146 1.43-2.13 1.472-.986.043-1.85-.23-2.591-.815z" transform="translate(184.752 287.613)"/>
                <path fill="#FFF" d="M185.372 331.792c-.142.84-.238 1.523-.288 2.05a8.66 8.66 0 0 0 0 1.614c.09.637.657.956 1.702.956 1.567 0 2.73-1.23 3.482-1.932.753-.702 1.976-1.018 2.776-1.76.533-.494.815-.971.847-1.43-.01-.466-.038-.725-.083-.778-.413-.48-1.117-.135-1.9 0-.912.157-1.754.194-2.527.112-.011.755-.556 1.252-1.633 1.49-1.078.239-1.87.131-2.376-.322z"/>
                <path fill="url(#E)" d="M.62 43.518c-.142.84-.238 1.523-.288 2.05a8.66 8.66 0 0 0 0 1.614c.09.638.657.956 1.702.956 1.567 0 2.578-1.155 3.33-1.857.754-.702 2.061-.992 2.86-1.733.534-.495.81-1.04.83-1.635-.354-.607-.987-.831-1.898-.674-.912.157-1.754.194-2.527.111-.011.755-.556 1.252-1.633 1.49-1.078.24-1.87.132-2.376-.322z" transform="translate(184.752 287.613)"/>
                <path fill="url(#F)" d="M16.802 9.204s-.497-.262-.75-.175c-.254.088-.456.553-.323.92.134.369.712 1.134 1.135 1.185.121.014.282-.089.295-.3.03-.53-.357-1.63-.357-1.63z" transform="translate(181.871 241.605)"/>
                <path fill="url(#G)" d="M17.73 19.832a35.577 35.577 0 0 1 2.088 1.964c.86.889 2.088 2.26 2.26 2.958.173.699-.68 4.881-.731 8.513-.034 2.42.144 8.803.533 19.148-.864 2.17-3.078 3.403-6.643 3.7-5.347.443-9.905-1.991-10.53-3.064C4.08 51.978 3.61 29.978 3.61 27.1c0-2.878-.373-6.094 0-8.398.185-1.143.747-2.487 1.493-3.434.757-.962 2.132-1.105 3.067-.618 1.237.644 1.81.937 1.72.88-.109 1.132.72 1.959 2.487 2.48a71.085 71.085 0 0 1 5.354 1.82z" transform="translate(181.871 241.605)"/>
                <path fill="url(#H)" d="M10.51 15.339s-.538.065-.738.33c-.2.265-.475.88-.51 1.395-.036.514 1.145 2.25 3.896 2.571 1.834.214 3.375.3 4.624.26.009-.749-.069-1.265-.233-1.548-.245-.425-.708-.78-1.753-.78s-1.965.135-3.407-.503c-1.441-.638-1.879-1.725-1.879-1.725z" transform="translate(181.871 241.605)"/>
                <path fill="#1C204E" d="M195.741 242.093c1.719-.352 3.843-.521 5.754.846 1.911 1.367 3.24 5.082.545 7.407-2.1 1.813-.915 7.46-2.57 10.645-.467.901-2.043 1.42-2.8 1.806-3.435 1.748-.655 6.601-4.617 8.45-3.962 1.848-11.116-1.746-9.873-7.393 1.243-5.646 4.177-6.047 5.503-8.436 1.326-2.39.747-5.521 1.866-8.443 1.12-2.923 4.537-4.544 6.192-4.882z"/>
                <path fill="#E5AE9B" d="M210.138 291.702c.223.405.394.662.514.77.18.163 1.572 2.17 1.822 2.483.375.47 1.197 1.324-.112 2.239-1.31.914-2.506.32-3.318-1.19-.54-1.007-.958-1.914-1.252-2.722l2.346-1.58z"/>
                <path fill="url(#G)" d="M10.643 45.425c1.681.591 13.212-2.08 14.483-2.622 1.271-.542 11.412-7.079 12.409-7.765.593-.408 1.094-1.422.41-2.488-.684-1.065-1.629-1.332-2.358-.936-1.342.73-10.954 6.343-11.719 6.611-.764.27-10.541 1.815-12.193 2.135-1.652.32-2.63 1.055-2.882 2.36-.251 1.303.234 2.138 1.85 2.705z" transform="rotate(95 3.743 242.605)"/>
            </g>
        </g>
        <g>
            <path fill="url(#I)" d="M136.235 161.51l130.534 36.154v159.535c0 .757-.405 1.456-1.062 1.833l-128.499 73.694a4.224 4.224 0 0 1-4.202 0L4.416 359.032a2.112 2.112 0 0 1-1.061-1.832V197.664L133.98 161.51a4.224 4.224 0 0 1 2.255 0z" transform="translate(610.876 223.918)"/>
            <path fill="url(#J)" d="M.865 342.445L135.64 419.58l.092-154.889L.865 187.556z" transform="translate(610.876 223.918)"/>
            <path fill="url(#I)" d="M137.578 120.05l2.55 44.483v238.222c0 .044-.002.087-.004.131l-2.172 39.85a2.179 2.179 0 0 1-4.35 0l-4.598-84.34a2.42 2.42 0 0 1-.004-.13V120.043a4.296 4.296 0 0 1 8.578.007z" transform="translate(610.876 223.918)"/>
            <path fill="url(#K)" d="M136.83 126.205l128.477 73.53a2.112 2.112 0 0 1 0 3.666L136.83 276.93a4.224 4.224 0 0 1-4.195 0L4.07 203.4a2.112 2.112 0 0 1 0-3.667l128.565-73.53a4.224 4.224 0 0 1 4.195 0z" transform="translate(610.876 223.918)"/>
            <path fill="url(#L)" d="M136.83 112.205l128.477 73.53a2.112 2.112 0 0 1 0 3.666L136.83 262.93a4.224 4.224 0 0 1-4.195 0L4.07 189.4a2.112 2.112 0 0 1 0-3.667l128.565-73.53a4.224 4.224 0 0 1 4.195 0z" transform="translate(610.876 223.918)"/>
            <path fill="url(#s)" d="M36.959 200.112c5.926 0 10.73-2.666 10.73-5.955V146.51c-4.302-3.97-7.879-5.956-10.73-5.956-3.231 0-6.808 1.985-10.73 5.956v47.646c0 3.289 4.804 5.955 10.73 5.955z" transform="translate(706.722 223.918)"/>
            <path fill="url(#M)" d="M35.767 181.054c19.753 0 35.767-15.999 35.767-35.734C71.534 125.584 55.52 0 35.767 0 16.013 0 0 125.584 0 145.32c0 19.735 16.013 35.734 35.767 35.734z" transform="translate(706.722 223.918)"/>
            <path fill="url(#N)" d="M35.767 181.054c12.6 0 21.46-15.999 21.46-35.734C57.227 125.584 48.367 0 35.767 0 16.013 0 0 125.584 0 145.32c0 19.735 16.013 35.734 35.767 35.734z" transform="translate(706.722 223.918)"/>
        </g>
        <g>
            <path fill="url(#m)" d="M142.741 8.522l212.745 117.01v236.89a2.42 2.42 0 0 1-1.209 2.096L219.888 442.25a4.84 4.84 0 0 1-4.846 0L3.63 320.028a2.42 2.42 0 0 1-1.209-2.095V81.042L138.127 8.495a4.84 4.84 0 0 1 4.614.027z" transform="translate(327 313.084)"/>
            <path fill="url(#O)" d="M275.64 12.758l79.846 112.773v237.55c0 .48-.144.951-.413 1.35l-49.32 73.258a4.84 4.84 0 0 1-8.029 0l-79.311-117.747a2.42 2.42 0 0 1-.413-1.352V81.042l49.778-68.337a4.84 4.84 0 0 1 7.862.053z" transform="translate(327 313.084)"/>
            <path fill="url(#o)" d="M220.451 81.049L223 125.531v238.222c0 .044-.001.088-.004.132l-2.17 39.85a2.179 2.179 0 0 1-4.352 0l-4.598-84.34a2.42 2.42 0 0 1-.003-.132V81.042a4.296 4.296 0 0 1 8.578.007z" transform="translate(327 313.084)"/>
            <path fill="url(#P)" d="M142.741 8.522l212.745 117.01v7.07a2.42 2.42 0 0 1-1.209 2.095L219.888 212.43a4.84 4.84 0 0 1-4.846.001L3.63 90.208a2.42 2.42 0 0 1-1.209-2.095v-7.071L138.127 8.495a4.84 4.84 0 0 1 4.614.027z" transform="translate(327 313.084)"/>
            <path fill="url(#Q)" d="M142.86 1.397l211.415 122.038a2.42 2.42 0 0 1 0 4.192l-134.39 77.55a4.84 4.84 0 0 1-4.839 0L3.631 83.138a2.42 2.42 0 0 1 0-4.192l134.391-77.55a4.84 4.84 0 0 1 4.839 0z" transform="translate(327 313.084)"/>
            <g transform="translate(379.328 374.126)">
                <mask id="T" fill="#fff">
                    <use xlink:href="#R"/>
                </mask>
                <use fill="url(#S)" xlink:href="#R"/>
                <path fill="url(#L)" d="M51.695 4.12l76.521 43.59a.871.871 0 0 1 0 1.513l-48.642 27.7a1.742 1.742 0 0 1-1.724-.001L1.33 33.332a.871.871 0 0 1 0-1.513l48.64-27.7a1.742 1.742 0 0 1 1.725 0z" mask="url(#T)"/>
            </g>
            <g>
                <path fill="url(#v)" d="M7.068.58l211.594 121.138a4.84 4.84 0 0 1 2.436 4.2v155.488a2.42 2.42 0 0 1-1.176 2.076l-3.012 1.805a3.63 3.63 0 0 1-3.732 0L5.92 161.037a4.84 4.84 0 0 1-2.35-4.04L.057 4.94A3.63 3.63 0 0 1 2.34 1.484L4.968.434a2.42 2.42 0 0 1 2.1.147z" transform="translate(467.441 151)"/>
                <path fill="url(#w)" d="M3.63 2.095l211.415 122.04a4.84 4.84 0 0 1 2.42 4.191v155.098a2.42 2.42 0 0 1-3.63 2.096L2.42 163.48A4.84 4.84 0 0 1 0 159.289V4.191a2.42 2.42 0 0 1 3.63-2.096z" transform="translate(467.441 151)"/>
                <path fill="url(#x)" d="M8.475 15.725L208.24 131.34v140.815L8.475 156.539z" transform="translate(467.441 151)"/>
                <path fill="url(#y)" d="M35 80l147 85.095V232L35 146.905z" opacity=".1" transform="translate(467.441 151)"/>
                
                <path fill="#B5CCDD" d="M503.833 207.788l3.364-.286c.613-.052 1.407.4 2.02 1.152l3.364 4.123c.52.637.833 1.395.833 2.017v4.919c0 .621-.313 1.022-.833 1.066l-3.364.287c-.613.052-1.407-.4-2.02-1.153l-3.364-4.123c-.52-.637-.833-1.395-.833-2.016v-4.92c0-.62.313-1.022.833-1.066z"/>
                <path fill="#E8EFF4" d="M503.833 210.188l3.364-.286c.613-.052 1.407.4 2.02 1.152l3.364 4.123c.52.637.833 1.395.833 2.017v2.103c0 .621-.313 1.022-.833 1.066l-3.364.287c-.613.052-1.407-.4-2.02-1.153l-3.364-4.123c-.52-.637-.833-1.395-.833-2.016v-2.103c0-.622.313-1.023.833-1.067z"/>
                <path fill="#B5CCDD" d="M503 212.286l4.251 5.003c.588.691 1.324 1.111 1.912 1.09l4.25-.154v1.221c0 .622-.312 1.023-.832 1.067l-3.364.286c-.613.053-1.407-.4-2.02-1.152l-3.364-4.123c-.52-.637-.833-1.395-.833-2.016v-1.222z"/>
                <g>
                    <g transform="translate(489.441 260.845)">
                        <mask id="W" fill="#fff">
                            <use xlink:href="#V"/>
                        </mask>
                        <use fill="url(#z)" opacity=".5" xlink:href="#V"/>
                        <g fill="#FFF" mask="url(#W)" opacity=".3">
                            <path d="M144.836-15.218h1v149.649h-1zM115.869-30.437h1v149.649h-1zM86.902-45.655h1v149.649h-1zM57.934-60.874h1V88.775h-1zM28.967-76.092h1V73.557h-1zM0-91.311h1V58.338H0z"/>
                        </g>
                    </g>
                    <path fill="url(#X)" fill-rule="nonzero" d="M6.454 26.566a5.082 5.082 0 0 1-.908-10.123c.736-.066 1.68-.794 8.339-6.593 3.59-3.126 6.278-5.143 9.232-6.682C27.283.998 31.434.196 35.63 1.164c6.801 1.57 10.662 4.622 15.662 10.888.282.354 1.225 1.545 1.315 1.659.505.636.899 1.123 1.286 1.59 2.807 3.384 5.25 5.516 8.685 7.253 2.83 1.433 5.93.137 16.379-6.641 5.786-3.753 9.326-5.732 13.441-7.172 5.76-2.014 11.28-2.183 16.682-.065 6.653 2.609 11.38 5.65 17.834 10.922-.336-.274 4.782 3.957 6.257 5.128 2.432 1.93 4.646 3.546 7.02 5.084 3.984 2.582 8.334 4.878 13.454 7.015a5.082 5.082 0 1 1-3.914 9.38c-5.684-2.372-10.573-4.953-15.067-7.865-2.671-1.73-5.142-3.533-7.813-5.654-1.567-1.244-6.775-5.55-6.368-5.217-5.706-4.662-9.608-7.172-15.114-9.33-5.465-2.143-10.668-.324-20.881 6.301-7.327 4.753-8.745 5.613-12.058 7-5.195 2.173-9.959 2.452-14.442.183-4.837-2.448-8.292-5.462-11.918-9.832-.44-.531-.875-1.07-1.422-1.758-.102-.129-1.034-1.307-1.3-1.64-3.704-4.641-5.9-6.378-10.003-7.325-3.088-.712-6.761 1.201-12.785 6.447-.614.535-2.747 2.423-3.141 2.768-1.262 1.104-2.236 1.92-3.18 2.648-2.803 2.16-5.157 3.4-7.785 3.635z" transform="translate(483.441 255)"/>
                </g>
            </g>
        </g>
        <g>
            <path fill="#F7BAC4" d="M506.572 286.415c.246.903.45 1.549.613 1.936.245.58 1.025 1.319.163 1.641-.575.216-1.037.108-1.386-.322l.61-3.255z"/>
            <g transform="translate(493.29 279.321)">
                <mask id="Z" fill="#fff">
                    <use xlink:href="#Y"/>
                </mask>
                <use fill="#FFD1D9" xlink:href="#Y"/>
                <path fill="#E5B6BE" d="M8.819 9.126c-.218-.273-.392-.521-1.25-.54-.857-.018-1.283 1.237-.58 2.092.702.854 1.452 1.204 1.774 1.15.322-.054.569-.48.52-.831-.05-.351-.246-1.598-.464-1.871z" mask="url(#Z)"/>
            </g>
            <path fill="#1C204E" d="M496.055 292.442c.392.226.874.215 1.368.127.494-.087 1.903-.85 2.273-1.748.37-.898.994-2.988 1.56-3.013.567-.025 1.163.208 1.46 1.107.197.6.457.6.778 0 .012-.969.066-1.625.161-1.969.144-.515 1.386-1.801 1.186-2.15-.2-.347-.833-.903-.853-1.08-.021-.176 1.729-1.227 2.047-1.896.318-.669.403-1.46-.453-2.445-.855-.985-4.322-2.226-8.159.11-2.558 1.557-3.707 2.999-3.446 4.326-.607.4-.939.9-.998 1.501-.087.9-.116 2.231.802 4.013.918 1.78 1.882 2.89 2.274 3.117z"/>
            <path fill="#FFD1D9" d="M502.18 288.117c-.192-.274-.345-.521-1.1-.54-.756-.018-1.131 1.236-.512 2.091.618.855 1.328 1.274 1.612 1.22.283-.054.561-.323.518-.674-.044-.35-.327-1.824-.518-2.097zM492.86 367.748c-.325-.046-.518-.338-.578-.874-.06-.537-1.175-.59-3.345-.159l-.196 2.528c.883.533 1.696.598 2.439.195a3.999 3.999 0 0 0 1.68-1.69zM502.768 374.748l-.368-3.224-3.343.138-.49 2.907c.713.441 1.414.675 2.1.701.687.026 1.387-.148 2.101-.522z"/>
            <path fill="url(#G)" d="M12.673 48.384c1.374 0 2.189-.614 2.295-1.21.106-.595 2.63-16.62 2.667-17.886.024-.843.38-8.667 1.065-23.47C10.43 1.596 5.515-.192 3.956.453 2.398 1.1 1.75 1.84 2.012 2.678c.296 13.954.446 21.242.45 21.863.005.932-1.824 16.415-1.765 17.23.059.815.721 1.128 1.691 1.18.97.051 1.937-.414 2.17-.922.235-.507 4.04-16.42 4.125-17.07.057-.434.451-4.409 1.18-11.926 1.177 10.144 1.774 15.505 1.794 16.084.03.868-1.123 17.313-1.055 17.86.068.545.697 1.407 2.071 1.407z" transform="translate(487.981 325.108)"/>
            <path fill="#303FCE" d="M498.289 374.764c-.085.81-.18 1.442-.289 1.893-.108.45-.162 1.178-.162 2.182.576.407 1.546.628 2.91.664 2.045.053 2.524-.33 4.622 0 2.097.329 5.366-.247 5.261-1.62-.079-1.033-2.325-1.684-3.993-1.994-1.669-.31-1.952-.338-2.507-.731a6.371 6.371 0 0 1-1.12-1.05c-.436.938-1.146 1.429-2.131 1.471-.985.043-1.849-.229-2.591-.815z"/>
            <path fill="url(#aa)" d="M10.308 48.996c-.085.81-.181 1.441-.29 1.892-.107.452-.161 1.179-.161 2.182.576.408 1.546.629 2.91.664 2.045.054 2.524-.329 4.622 0 2.097.33 5.366-.246 5.26-1.62-.078-1.032-2.324-1.683-3.993-1.993-1.668-.31-1.952-.338-2.507-.732a6.371 6.371 0 0 1-1.12-1.05c-.436.939-1.146 1.43-2.13 1.472-.986.043-1.85-.23-2.591-.815z" transform="translate(487.981 325.108)"/>
            <path fill="#303FCE" d="M488.602 369.286c-.143.84-.239 1.523-.289 2.05a8.66 8.66 0 0 0 0 1.614c.09.638.657.956 1.702.956 1.567 0 2.73-1.23 3.483-1.932.753-.702 1.976-1.018 2.775-1.76.533-.494.816-.97.847-1.43-.01-.466-.038-.725-.083-.777-.413-.48-1.116-.135-1.9 0-.912.157-1.754.194-2.526.111-.012.756-.556 1.252-1.634 1.49-1.078.24-1.87.132-2.375-.322z"/>
            <path fill="url(#aa)" d="M.62 43.518c-.142.84-.238 1.523-.288 2.05a8.66 8.66 0 0 0 0 1.614c.09.638.657.956 1.702.956 1.567 0 2.578-1.155 3.33-1.857.754-.702 2.061-.992 2.86-1.733.534-.495.81-1.04.83-1.635-.354-.607-.987-.831-1.898-.674-.912.157-1.754.194-2.527.111-.011.755-.556 1.252-1.633 1.49-1.078.24-1.87.132-2.376-.322z" transform="translate(487.981 325.108)"/>
            <path fill="url(#ab)" d="M6.045 16.69C2.038 23.996.035 28.432.035 29.999c0 2.351 4.262 11.382 6.01 12.18 1.748.797 1.016-2.399.663-2.906-.352-.507-2.563-7.674-2.563-8.476 0-.535 1.036-2.655 3.108-6.358L6.045 16.69z" transform="translate(484 278)"/>
            <path fill="url(#ab)" d="M18.831 20.931c.65.536 1.26.908 1.83 1.116.854.311 2.364 1.673 2.536 2.372.172.699-.7 6.316-.75 9.947-.033 2.421.144 8.804.533 19.148-.863 2.17-3.078 3.404-6.642 3.7-5.348.443-9.906-1.99-10.531-3.064C5.18 53.077 4.71 31.077 4.71 28.2c0-2.877-.374-6.094 0-8.397.185-1.143.747-2.488 1.492-3.435.757-.961 2.132-1.104 3.067-.618 1.238.644 1.811.937 1.72.88-.108 1.132.72 1.96 2.487 2.48a71.085 71.085 0 0 1 5.354 1.821z" transform="translate(484 278)"/>
            <path fill="url(#ab)" d="M11.61 16.438s-.537.065-.737.33c-.2.265-.476.88-.51 1.395-.036.514 1.145 2.25 3.896 2.571 1.833.214 3.375.301 4.624.261.008-.749-.07-1.265-.233-1.548-.245-.425-.708-.78-1.753-.78-1.046 0-1.966.134-3.407-.504-1.442-.638-1.88-1.725-1.88-1.725z" transform="translate(484 278)"/>
            <path fill="#FFD1D9" d="M526.613 290.198c.285-.471.447-.8.487-.989.06-.282-.228-1.34-1.012-1.83-.784-.489-.08-1.422.697-1.066.517.238.889.59 1.114 1.057.277-.566.503-1.07.676-1.514.26-.666.652-2.02 2.373-1.216s1.82 2.391.747 4.125c-.715 1.157-1.401 2.126-2.058 2.91l-3.024-1.477z"/>
            <path fill="url(#ab)" d="M21.167 28.577c1.681.591 12.116-1.985 13.387-2.527 1.27-.542 10.453-11.186 10.999-11.914.256-.344-.15-1.422-.854-1.984-.79-.631-1.929-.707-2.404-.235-.898.891-8.585 8.121-9.248 8.6-.662.478-9.909 2.268-11.402 2.055-1.494-.214-2.325 1.038-2.576 2.343-.252 1.304.482 3.094 2.098 3.662z" transform="translate(484 278)"/>
            <path fill="url(#ac)" d="M17.903 10.303s-.498-.261-.75-.174c-.254.087-.457.552-.323.92.133.368.711 1.133 1.135 1.184.12.015.282-.089.294-.3.031-.529-.356-1.63-.356-1.63z" transform="translate(484 278)"/>
        </g>
        <g>
            <path fill="url(#ad)" d="M64.112 13.889l-5.146-8.395L83.93 19.836c4.685 2.223 7.945 6.964 9.009 13.795L55.363 50.783l4.874-35.738a27.034 27.034 0 0 1 3.875-1.156z" transform="scale(-1 1) rotate(60 -590.108 -294.096)"/>
            <path fill="url(#G)" d="M55.363 50.783L32.477 84.891c-4.243-3.31-6.794-9.233-6.794-17.293 0-18.327 13.19-40.767 29.462-50.12a35.398 35.398 0 0 1 5.092-2.433l-4.874 35.738z" transform="scale(-1 1) rotate(60 -590.108 -294.096)"/>
            <path fill="url(#ae)" d="M55.363 50.783L32.477 84.891 6.813 70.143 34.573.297l25.664 14.748z" transform="scale(-1 1) rotate(60 -590.108 -294.096)"/>
            <path fill="url(#af)" d="M29.699 36.035L6.813 70.143C2.57 66.833.02 60.91.02 52.849c0-18.327 13.19-40.766 29.462-50.12A35.398 35.398 0 0 1 34.573.298l-4.874 35.738z" transform="scale(-1 1) rotate(60 -590.108 -294.096)"/>
            <path fill="url(#ad)" d="M67.122 18.799l17.11 9.832-28.869 22.152-17.11-9.832z" transform="scale(-1 1) rotate(60 -590.108 -294.096)"/>
            <path fill="url(#ag)" d="M43.127 5.213C55.443.55 65.132 6.012 67.122 18.799L38.254 40.95l4.873-35.738z" transform="scale(-1 1) rotate(60 -590.108 -294.096)"/>
            <path fill="url(#ah)" d="M33.744 83.003l21.62-32.22 20.175-15.482c.337-2.2.513-4.372.513-6.49 0-1.808-.129-3.508-.376-5.096l17.262 9.916c.247 1.588.375 3.288.375 5.097 0 18.327-13.19 40.766-29.462 50.12-9.115 5.239-17.263 5.26-22.667 1.043l-17.261-9.916c2.673 2.086 6.02 3.135 9.821 3.028z" transform="scale(-1 1) rotate(60 -590.108 -294.096)"/>
            <path fill="url(#ai)" d="M23.923 79.975l22.885-34.108 28.868-22.152c.247 1.588.376 3.288.376 5.097 0 18.327-13.19 40.766-29.462 50.119-9.115 5.24-17.263 5.26-22.667 1.044z" transform="scale(-1 1) rotate(60 -590.108 -294.096)"/>
        </g>
        <g>
            <path fill="url(#aj)" d="M3.556.314L63.541 34.21A4.84 4.84 0 0 1 66 38.423v87.97c0 .407-.205.787-.546 1.01L63 129.016 4.32 93.824a4.84 4.84 0 0 1-2.35-4.098L1 .985 2.427.282a1.21 1.21 0 0 1 1.13.032z" transform="translate(630 345)"/>
            <path fill="url(#ak)" d="M1.81 1.035L61.562 35.19A4.84 4.84 0 0 1 64 39.392v88.523a1.21 1.21 0 0 1-1.81 1.05L2.438 94.81A4.84 4.84 0 0 1 0 90.608V2.085a1.21 1.21 0 0 1 1.81-1.05z" transform="translate(630 345)"/>
            <path fill="#FFF" d="M643 423.788l39 21.93v5.646l-39-21.931z" opacity=".3"/>
            <g transform="translate(648 380.455)">
                <mask id="an" fill="#fff">
                    <use xlink:href="#al"/>
                </mask>
                <use fill="url(#ad)" xlink:href="#al"/>
                <path fill="url(#am)" d="M28.002 24.883l3.501-1.06-9.809-35.91-36.963 9.115L1.598 21.213z" mask="url(#an)"/>
            </g>
            <g transform="translate(645 381.44)">
                <mask id="ar" fill="#fff">
                    <use xlink:href="#ao"/>
                </mask>
                <use fill="url(#ap)" xlink:href="#ao"/>
                <path fill="url(#aq)" d="M40.14 24.564L12.212 22.5l-16.575 9.783c15.728 12.533 26.157 18.355 31.286 17.465 5.13-.89 9.534-9.284 13.215-25.184z" mask="url(#ar)"/>
            </g>
        </g>
        <g>
            <path stroke="#FFF" stroke-linecap="round" stroke-linejoin="round" d="M570.782 394.171v-40.38l51.056 29.875"/>
            <path fill="#FFF" d="M620.9 386.454c1.602.916 2.9.072 2.9-1.884s-1.298-4.284-2.9-5.2c-1.602-.916-2.9-.073-2.9 1.884 0 1.956 1.298 4.284 2.9 5.2z"/>
        </g>
        <g transform="translate(407 329.368)">
            <ellipse cx="12.509" cy="65.074" fill="url(#r)" rx="3.632" ry="1.996"/>
            <path fill="url(#as)" d="M12.51 67.07c2.005 0 3.63-.893 3.63-1.996V49.105c-1.455-1.33-2.666-1.996-3.63-1.996-1.094 0-2.305.666-3.633 1.996v15.97c0 1.102 1.626 1.996 3.632 1.996z"/>
            <g fill="url(#t)">
                <path d="M12.106 60.683c6.685 0 12.105-5.362 12.105-11.977S18.791 0 12.106 0C5.42 0 0 42.091 0 48.706c0 6.615 5.42 11.977 12.106 11.977z"/>
                <path d="M12.106 60.683c4.264 0 7.263-5.362 7.263-11.977S16.37 0 12.106 0C5.42 0 0 42.091 0 48.706c0 6.615 5.42 11.977 12.106 11.977z"/>
            </g>
        </g>
        <g>
            <path fill="url(#at)" d="M150.77 109.952l-103.348-6.603L.662 76.277v-21.99L93.53 22.79v53.876l103.463 6.653L310.32 149.29l93.57-52.532 46.22 4.398v21.99l-139.765 79.165z" transform="translate(0 389.945)"/>
            <path fill="url(#au)" d="M150.77 87.961L47.423 81.36.662 54.287 93.53.8v53.875l103.463 6.654 113.328 65.97 93.57-52.532 46.22 26.389-139.765 79.165z" transform="translate(0 389.945)"/>
        </g>
        <g>
            <path fill="url(#q)" d="M83.751 7.198l81.104 40.719V69.81c0 .473-.252.91-.662 1.145L83.88 117.076a2.64 2.64 0 0 1-2.628 0L.885 70.957a1.32 1.32 0 0 1-.663-1.146V47.917l81.16-40.719a2.64 2.64 0 0 1 2.37 0z" transform="translate(232.008 493.722)"/>
            <path fill="url(#av)" d="M83.88.752l80.3 46.02a1.32 1.32 0 0 1 0 2.29l-80.3 46.02a2.64 2.64 0 0 1-2.625 0L.9 49.062a1.32 1.32 0 0 1 0-2.29L81.255.752a2.64 2.64 0 0 1 2.624 0z" transform="translate(232.008 493.722)"/>
        </g>
        <g>
            <path stroke="url(#aw)" d="M3.335 183.28l32.571-54.035 35.255-27.09 34.02-63.072 33.973-31.567" transform="translate(335 14)"/>
            <path fill="#C5D5FD" d="M337.9 200.454c-1.602.916-2.9.072-2.9-1.884s1.298-4.284 2.9-5.2c1.602-.916 2.9-.073 2.9 1.884 0 1.956-1.298 4.284-2.9 5.2z"/>
            <path fill="#E1E9FE" d="M405.9 119.454c-1.602.916-2.9.072-2.9-1.884s1.298-4.284 2.9-5.2c1.602-.916 2.9-.073 2.9 1.884 0 1.956-1.298 4.284-2.9 5.2z"/>
            <path fill="#D6E1FD" d="M370.9 146.454c-1.602.916-2.9.072-2.9-1.884s1.298-4.284 2.9-5.2c1.602-.916 2.9-.073 2.9 1.884 0 1.956-1.298 4.284-2.9 5.2z"/>
            <path fill="#EDF2FE" d="M439.9 56.454c-1.602.916-2.9.072-2.9-1.884s1.298-4.284 2.9-5.2c1.602-.916 2.9-.073 2.9 1.884 0 1.956-1.298 4.284-2.9 5.2z"/>
            <path fill="#D781D9" d="M139 15.244c3.314 1.872 6 .148 6-3.853 0-4-2.686-8.762-6-10.635-3.314-1.872-6-.148-6 3.853 0 4 2.686 8.762 6 10.635z" filter="url(#ax)" transform="matrix(-1 0 0 1 613 14)"/>
            <path fill="#FFF" d="M473.9 25.454c-1.602.916-2.9.072-2.9-1.884s1.298-4.284 2.9-5.2c1.602-.916 2.9-.073 2.9 1.884 0 1.956-1.298 4.284-2.9 5.2z"/>
            <path stroke="#FFF" stroke-width=".7" d="M474 29.244c-3.314 1.872-6 .148-6-3.853 0-4 2.686-8.762 6-10.635 3.314-1.872 6-.148 6 3.853 0 4-2.686 8.762-6 10.635z"/>
        </g>
        <g fill="#FFF" transform="translate(416 26)">
            <circle cx="278" cy="119" r="16" opacity=".05"/>
            <circle cx="3.5" cy="38.5" r="3.5" opacity=".4"/>
            <circle cx="158" cy="7" r="7" opacity=".1"/>
        </g>
    </g>
</svg>
