<?xml version="1.0" encoding="UTF-8"?>
<svg width="27px" height="25px" viewBox="0 0 27 25" version="1.1" xmlns="http://www.w3.org/2000/svg" xmlns:xlink="http://www.w3.org/1999/xlink">
    <!-- Generator: Sketch 48.2 (47327) - http://www.bohemiancoding.com/sketch -->
    <title>Group 8</title>
    <desc>Created with Sketch.</desc>
    <defs></defs>
    <g id="Features-Page" stroke="none" stroke-width="1" fill="none" fill-rule="evenodd" transform="translate(-953.000000, -3506.000000)">
        <g id="Content-Explorer" transform="translate(-778.000000, 2665.000000)">
            <g id="Group-8" transform="translate(1732.000000, 837.000000)">
                <g id="Icon/02">
                    <g id="Page-1" transform="translate(0.000000, 5.178571)">
                        <path d="M4.79519444,22.8594663 L3.94028704,22.8594663 C2.30112037,22.8594663 0.972416667,21.5383552 0.972416667,19.9085552 L0.972416667,0.897444127 L4.79519444,0.897444127 L4.79519444,22.8594663 Z" id="Fill-1" fill-opacity="0.13060462" fill="#FFFFFF"></path>
                        <path d="M0.972222222,20.0794619 L0.972222222,2.41330635 C0.972222222,1.38155079 1.81351852,0.545706349 2.85055556,0.545706349 L8.74351852,0.545706349 C9.33462963,0.545706349 9.89138889,0.822173016 10.2465741,1.29261746 L11.4949074,2.94819524 C11.8500926,3.41799524 12.4068519,3.69510635 12.997963,3.69510635 L22.850463,3.69510635 C23.8875,3.69510635 24.7287963,4.53159524 24.7287963,5.56270635 L24.7287963,20.7239063 C24.7287963,21.7556619 23.8875,22.5915063 22.850463,22.5915063 L4.14685185,22.5915063" id="Stroke-3" stroke="#8349df" stroke-width="2" stroke-linecap="round" stroke-linejoin="round"></path>
                        <polygon id="Stroke-5" stroke="#ec6ad5" stroke-width="2" stroke-linecap="round" stroke-linejoin="round" points="8.97319444 10.9862495 10.2489352 10.9862495 10.2489352 9.71779873 8.97319444 9.71779873"></polygon>
                        <polygon id="Stroke-7" stroke="#ec6ad5" stroke-width="2" stroke-linecap="round" stroke-linejoin="round" points="14.9180556 11.0873813 16.3972222 11.0873813 16.3972222 9.61666698 14.9180556 9.61666698"></polygon>
                        <polygon id="Stroke-8" stroke="#ec6ad5" stroke-width="2" stroke-linecap="round" stroke-linejoin="round" points="8.97319444 16.9989162 10.2489352 16.9989162 10.2489352 15.7304654 8.97319444 15.7304654"></polygon>
                        <polygon id="Stroke-9" stroke="#ec6ad5" stroke-width="2" stroke-linecap="round" stroke-linejoin="round" points="14.9180556 17.1000479 16.3972222 17.1000479 16.3972222 15.6293337 14.9180556 15.6293337"></polygon>
                    </g>
                </g>
            </g>
        </g>
    </g>
</svg>