<?xml version="1.0" encoding="UTF-8"?>
<svg width="30px" height="26px" viewBox="0 0 30 26" version="1.1" xmlns="http://www.w3.org/2000/svg" xmlns:xlink="http://www.w3.org/1999/xlink">
    <!-- Generator: Sketch 48.2 (47327) - http://www.bohemiancoding.com/sketch -->
    <title>Group 7</title>
    <desc>Created with Sketch.</desc>
    <defs></defs>
    <g id="Features-Page" stroke="none" stroke-width="1" fill="none" fill-rule="evenodd" transform="translate(-953.000000, -3448.000000)">
        <g id="Content-Explorer" transform="translate(-778.000000, 2665.000000)">
            <g id="Group-7" transform="translate(1732.000000, 784.000000)">
                <g id="Icon/01">
                    <g id="Page-1">
                        <path d="M3.62976162,19.7419232 C3.62467071,19.6949737 3.62240808,19.5807111 3.61788283,19.5337616 L2.06911515,19.4981253 C1.2896404,19.4969939 0.766973737,20.4150545 1.08430707,21.1272162 C1.57586263,22.2291152 2.41642828,23.6449535 3.64842828,23.6449535 L4.07493333,23.6449535 C3.90353939,21.9479838 3.75533737,20.9784485 3.62976162,19.7419232" id="Fill-1" fill-opacity="0.187924592" fill="#E5E7FD"></path>
                        <path d="M24.2429091,23.5207919 L2.94141414,23.5207919 C1.70941414,23.5207919 0.868848485,22.2209131 0.377292929,21.1190141 C0.059959596,20.4068525 0.582626263,19.6053172 1.36210101,19.6064485 L26.2758788,19.6449131 C27.143596,19.6460444 27.6447677,20.6167111 27.1566061,21.3350949 C26.4467071,22.3787313 25.404202,23.5207919 24.2429091,23.5207919 Z" id="Stroke-3" stroke="#8349df" stroke-width="2" stroke-linecap="round" stroke-linejoin="round"></path>
                        <path d="M1.9731798,15.774804 L1.9731798,5.0194101 C1.9731798,2.40324848 4.09382626,0.28260202 6.70942222,0.28260202 L20.4746747,0.28260202 C23.0908364,0.28260202 25.2109172,2.40324848 25.2109172,5.0194101 L25.2109172,15.774804" id="Stroke-5" stroke="#8349df" stroke-width="2" stroke-linecap="round" stroke-linejoin="round"></path>
                        <polyline id="Stroke-7" stroke="#ec6ad5" stroke-width="2" stroke-linecap="round" stroke-linejoin="round" points="19.4016242 7.3099798 13.5923313 13.1192727 10.1061899 9.63369697 7.78247273 11.9574141"></polyline>
                        <polyline id="Stroke-9" stroke="#ec6ad5" stroke-width="2" stroke-linecap="round" stroke-linejoin="round" points="15.3350061 7.3099798 19.4015111 7.3099798 19.4015111 11.3764848"></polyline>
                    </g>
                </g>
            </g>
        </g>
    </g>
</svg>